<?xml version="1.0" encoding="utf-8"?>
<!-- Generator: Adobe Illustrator 22.0.1, SVG Export Plug-In . SVG Version: 6.00 Build 0)  -->
<svg version="1.1" id="Layer_1" xmlns="http://www.w3.org/2000/svg" xmlns:xlink="http://www.w3.org/1999/xlink" x="0px" y="0px"
	 viewBox="0 0 26.83784 26.83784" style="enable-background:new 0 0 26.83784 26.83784;" xml:space="preserve">
<g>
	<rect x="0.85435" y="0.85435" style="fill:#FADE71;" width="25.12914" height="25.12914"/>
	<g>
		<path style="fill:#FFFAD8;" d="M6.61256,9.02584c0.0801-0.06926,0.14509-0.15921,0.19495-0.26971
			c0.04979-0.1105,0.07476-0.22641,0.07476-0.34775c0-0.12126-0.02497-0.23726-0.07476-0.34775
			c-0.04986-0.1105-0.11485-0.19923-0.19495-0.2665C6.5323,7.727,6.45105,7.6934,6.36881,7.6934h-1.131v1.43644h1.131
			C6.45105,9.12984,6.5323,9.09525,6.61256,9.02584z"/>
		<path style="fill:#FFFAD8;" d="M16.06341,10.53712c0.18411-0.2058,0.2762-0.46474,0.2762-0.77675
			c0-0.31202-0.09209-0.57203-0.2762-0.77996c-0.18426-0.20801-0.42152-0.31201-0.71177-0.31201
			c-0.29033,0-0.52652,0.104-0.70849,0.31201c-0.18197,0.20793-0.27299,0.46795-0.27299,0.77996
			c0,0.31201,0.09102,0.57096,0.27299,0.77675c0.18197,0.20587,0.41816,0.30865,0.70849,0.30865
			C15.6419,10.84577,15.87915,10.74299,16.06341,10.53712z"/>
		<path style="fill:#FFFAD8;" d="M7.25278,18.11604c0.19503-0.28819,0.29247-0.65335,0.29247-1.09534
			c0-0.44198-0.09858-0.80699-0.29575-1.09518c-0.19717-0.28819-0.48856-0.43221-0.87419-0.43221H5.3028v3.05493h1.0725
			C6.76528,18.54825,7.05775,18.40423,7.25278,18.11604z"/>
		<g>
			<path style="fill:#202517;" d="M6.83131,7.43083c0.19931,0.13226,0.35966,0.30988,0.481,0.53301
				c0.12126,0.22321,0.18205,0.46695,0.18205,0.73124c0,0.26001-0.06078,0.50269-0.18205,0.72796
				c-0.12134,0.22542-0.2817,0.40411-0.481,0.53629c-0.1993,0.13218-0.40945,0.19824-0.63044,0.19824h-1.131v1.22851
				c0,0.11699-0.03474,0.21236-0.104,0.28598c-0.06941,0.07377-0.16036,0.1105-0.27299,0.1105
				c-0.10836,0-0.19724-0.03788-0.2665-0.11378c-0.06934-0.07575-0.10401-0.16998-0.10401-0.28269V7.62906
				c0-0.11263,0.03788-0.20686,0.11378-0.28269c0.07575-0.07583,0.16998-0.11378,0.28269-0.11378h1.48203
				C6.42186,7.23259,6.63201,7.29872,6.83131,7.43083z M6.44461,9.31254c0.0801-0.06926,0.14509-0.15921,0.19495-0.26971
				c0.04979-0.1105,0.07476-0.22641,0.07476-0.34775c0-0.12126-0.02497-0.23726-0.07476-0.34775
				C6.5897,8.23683,6.52472,8.1481,6.44461,8.08082C6.36436,8.0137,6.28311,7.9801,6.20087,7.9801h-1.131v1.43644h1.131
				C6.28311,9.41654,6.36436,9.38195,6.44461,9.31254z"/>
			<path style="fill:#202517;" d="M8.90805,11.66876c-0.0759,0.0759-0.17013,0.11378-0.28277,0.11378
				c-0.10836,0-0.19938-0.03788-0.27299-0.11378c-0.07377-0.07575-0.1105-0.16998-0.1105-0.28269V7.36905
				c0-0.11256,0.03788-0.20686,0.11378-0.28269c0.07575-0.07575,0.16998-0.11378,0.28269-0.11378
				c0.10828,0,0.1993,0.03803,0.27299,0.11378c0.07369,0.07583,0.1105,0.17013,0.1105,0.28269v4.01702
				C9.02175,11.49878,8.9838,11.59301,8.90805,11.66876z"/>
			<path style="fill:#202517;" d="M12.75929,8.4188c0.07361,0.0759,0.1105,0.17013,0.1105,0.28277v1.65102
				c0,0.46795-0.12897,0.83418-0.38677,1.09847c-0.25787,0.26436-0.6251,0.39647-1.10175,0.39647
				c-0.47673,0-0.84288-0.13211-1.09847-0.39647c-0.25574-0.26429-0.38349-0.63052-0.38349-1.09847V8.70157
				c0-0.11263,0.03673-0.20686,0.1105-0.28277c0.07361-0.07575,0.16677-0.1137,0.27948-0.1137
				c0.11263,0,0.2058,0.03795,0.27948,0.1137c0.07361,0.0759,0.1105,0.17013,0.1105,0.28277v1.65102
				c0,0.26437,0.05849,0.46046,0.17548,0.58822c0.11706,0.12783,0.29254,0.19174,0.52652,0.19174
				c0.23825,0,0.41602-0.06391,0.53301-0.19174c0.11699-0.12775,0.17548-0.32385,0.17548-0.58822V8.70157
				c0-0.11263,0.03681-0.20686,0.1105-0.28277c0.07369-0.07575,0.16677-0.1137,0.27948-0.1137
				C12.59236,8.3051,12.68552,8.34305,12.75929,8.4188z"/>
			<path style="fill:#202517;" d="M16.80868,8.35061c0.07361,0.07369,0.1105,0.16899,0.1105,0.28598v2.89244
				c0,0.52865-0.16357,0.91978-0.4907,1.17323c-0.32729,0.25352-0.74216,0.38028-1.24478,0.38028
				c-0.12997,0-0.30873-0.02176-0.53621-0.06498c-0.22748-0.04337-0.38899-0.08675-0.48429-0.13004
				c-0.21236-0.09095-0.31851-0.21671-0.31851-0.377c0-0.03032,0.00657-0.06498,0.01955-0.10393
				c0.02596-0.09538,0.07033-0.168,0.13325-0.21778c0.06277-0.04986,0.13096-0.07476,0.20473-0.07476
				c0.0433,0,0.08453,0.00649,0.12348,0.01947c0.01726,0.00428,0.12455,0.04444,0.32179,0.12027
				c0.19709,0.07575,0.37585,0.11378,0.53621,0.11378c0.32064,0,0.56004-0.06399,0.71826-0.19174
				c0.15815-0.12791,0.23726-0.30873,0.23726-0.54278v-0.31201c-0.09538,0.1344-0.23947,0.25574-0.43229,0.36402
				s-0.39975,0.1625-0.62075,0.1625c-0.30331,0-0.57959-0.0769-0.82868-0.23077c-0.24924-0.15372-0.44527-0.36722-0.58829-0.64022
				c-0.14295-0.27299-0.2145-0.58272-0.2145-0.92948c0-0.34661,0.07041-0.65748,0.21129-0.93276
				c0.14074-0.27513,0.33363-0.48963,0.57844-0.6435c0.24482-0.15372,0.51674-0.23069,0.81577-0.23069
				c0.22099,0,0.42679,0.04544,0.61746,0.13646s0.34454,0.20152,0.46153,0.33149V8.63658c0-0.11263,0.03673-0.20686,0.1105-0.28277
				c0.07361-0.07575,0.16677-0.1137,0.27948-0.1137C16.64183,8.24011,16.73499,8.27692,16.80868,8.35061z M15.89547,10.82382
				c0.18411-0.2058,0.2762-0.46474,0.2762-0.77675s-0.09209-0.57203-0.2762-0.77996
				c-0.18426-0.20801-0.42152-0.31201-0.71177-0.31201c-0.29033,0-0.52652,0.104-0.70849,0.31201
				c-0.18197,0.20793-0.27299,0.46795-0.27299,0.77996s0.09102,0.57096,0.27299,0.77675
				c0.18197,0.20587,0.41816,0.30873,0.70849,0.30873C15.47395,11.13255,15.71121,11.02969,15.89547,10.82382z"/>
			<path style="fill:#202517;" d="M18.51812,11.66876c-0.08239,0.0759-0.17777,0.11378-0.28605,0.11378
				c-0.11699,0-0.21343-0.03788-0.28918-0.11378c-0.0759-0.07575-0.11378-0.16998-0.11378-0.28269V7.62906
				c0-0.11263,0.03902-0.20686,0.11699-0.28269c0.07804-0.07583,0.17762-0.11378,0.29903-0.11378
				c0.1082,0,0.20144,0.03795,0.27948,0.11378c0.07797,0.07583,0.11699,0.17006,0.11699,0.28269v3.75701
				C18.6416,11.49878,18.60036,11.59301,18.51812,11.66876z"/>
			<path style="fill:#202517;" d="M22.32705,8.6333c0.16899,0.26223,0.25352,0.6251,0.25352,1.08877v1.664
				c0,0.11271-0.03688,0.20694-0.11049,0.28269c-0.07377,0.0759-0.16685,0.11378-0.27949,0.11378
				c-0.11279,0-0.20587-0.03788-0.27956-0.11378c-0.07369-0.07575-0.1105-0.16998-0.1105-0.28269v-1.664
				c0-0.23825-0.04986-0.42572-0.14944-0.56225c-0.09973-0.13646-0.27093-0.20473-0.51353-0.20473
				c-0.25138,0-0.44847,0.07262-0.5915,0.21771c-0.14295,0.14524-0.2145,0.32828-0.2145,0.54927v1.664
				c0,0.11271-0.03688,0.20694-0.1105,0.28269c-0.07369,0.0759-0.16685,0.11378-0.27948,0.11378
				c-0.11271,0-0.20587-0.03788-0.27949-0.11378c-0.07376-0.07575-0.11049-0.16998-0.11049-0.28269v-2.6845
				c0-0.11263,0.03673-0.20686,0.11049-0.28277c0.07361-0.07575,0.16677-0.1137,0.27949-0.1137
				c0.11263,0,0.2058,0.03795,0.27948,0.1137c0.07361,0.0759,0.1105,0.17013,0.1105,0.28277v0.1105
				c0.11699-0.15601,0.26979-0.29025,0.45825-0.40296c0.18854-0.11263,0.3954-0.16899,0.62074-0.16899
				C21.85254,8.24011,22.15807,8.37123,22.32705,8.6333z"/>
			<path style="fill:#202517;" d="M7.32209,15.33475c0.29247,0.20152,0.5156,0.47451,0.66947,0.81898
				c0.15379,0.34455,0.23077,0.7291,0.23077,1.15375c0,0.42472-0.07697,0.80921-0.23077,1.15375
				c-0.15387,0.34447-0.377,0.61746-0.66947,0.81898c-0.29254,0.20152-0.64251,0.30224-1.04975,0.30224H4.71884
				c-0.11271,0-0.20694-0.03788-0.28269-0.11378c-0.0759-0.07575-0.11378-0.16998-0.11378-0.28269v-3.75701
				c0-0.11263,0.03788-0.20686,0.11378-0.28269c0.07575-0.07583,0.16998-0.11378,0.28269-0.11378h1.55351
				C6.67958,15.03251,7.02955,15.13323,7.32209,15.33475z M7.08483,18.40274c0.19503-0.28811,0.29247-0.65328,0.29247-1.09526
				s-0.09858-0.80699-0.29575-1.09526c-0.19717-0.28811-0.48856-0.43221-0.87419-0.43221h-1.0725v3.05493h1.0725
				C6.59734,18.83495,6.8898,18.69093,7.08483,18.40274z"/>
			<path style="fill:#202517;" d="M11.95321,18.01597c-0.07796,0.06498-0.16899,0.09751-0.27299,0.09751H9.53521
				c0.052,0.25574,0.1712,0.45611,0.35753,0.6012c0.18625,0.14524,0.39647,0.21778,0.63052,0.21778
				c0.17762,0,0.31621-0.01627,0.41594-0.04872c0.09965-0.03253,0.17876-0.0672,0.23726-0.10401
				c0.05849-0.03681,0.09851-0.06178,0.12027-0.07476c0.07796-0.03902,0.15165-0.05849,0.22099-0.05849
				c0.09102,0,0.16899,0.03245,0.23397,0.09752c0.06506,0.06498,0.09751,0.14081,0.09751,0.22748
				c0,0.11699-0.06071,0.22321-0.18197,0.31851c-0.12134,0.09973-0.28384,0.18418-0.48749,0.25344
				c-0.20373,0.06926-0.40953,0.104-0.61754,0.104c-0.36394,0-0.68145-0.07575-0.95223-0.22748
				c-0.27086-0.15166-0.47993-0.36073-0.62724-0.62724c-0.14738-0.2665-0.22099-0.56653-0.22099-0.90023
				c0-0.37265,0.07804-0.69978,0.23405-0.98148c0.15593-0.28162,0.36173-0.49727,0.61746-0.64679
				c0.25566-0.14952,0.52865-0.2242,0.81898-0.2242c0.28598,0,0.55576,0.07796,0.80921,0.23397
				c0.25352,0.15601,0.45603,0.36623,0.60776,0.63052c0.15166,0.26437,0.22748,0.55034,0.22748,0.85793
				C12.07234,17.86645,12.03125,17.95098,11.95321,18.01597z M9.54178,17.46349h1.70295v-0.04551
				c-0.01733-0.18197-0.10622-0.33798-0.2665-0.46802c-0.16036-0.12997-0.34233-0.19495-0.54599-0.19495
				C9.92954,16.755,9.63272,16.99119,9.54178,17.46349z"/>
			<path style="fill:#202517;" d="M13.45792,19.46868c-0.0759,0.0759-0.17013,0.11378-0.28277,0.11378
				c-0.10836,0-0.19938-0.03788-0.27299-0.11378c-0.07377-0.07575-0.1105-0.16998-0.1105-0.28269v-4.01702
				c0-0.11256,0.03788-0.20686,0.11378-0.28269c0.07575-0.07575,0.16998-0.11378,0.28269-0.11378
				c0.10828,0,0.1993,0.03803,0.27299,0.11378c0.07369,0.07583,0.1105,0.17013,0.1105,0.28269v4.01702
				C13.57163,19.29869,13.53367,19.39293,13.45792,19.46868z"/>
			<path style="fill:#202517;" d="M17.19851,16.43321c0.16464,0.26223,0.24703,0.6251,0.24703,1.08877v1.664
				c0,0.11271-0.03688,0.20694-0.11057,0.28269c-0.07369,0.0759-0.16685,0.11378-0.27948,0.11378
				c-0.11271,0-0.20587-0.03788-0.27949-0.11378c-0.07369-0.07575-0.11049-0.16998-0.11049-0.28269v-1.664
				c0-0.23825-0.04658-0.42572-0.13974-0.56225c-0.09324-0.13646-0.25673-0.20473-0.49078-0.20473
				c-0.24268,0-0.43221,0.07262-0.56874,0.21771c-0.13646,0.14524-0.20473,0.32828-0.20473,0.54927v1.664
				c0,0.11271-0.03688,0.20694-0.1105,0.28269c-0.07369,0.0759-0.16685,0.11378-0.27948,0.11378
				c-0.11271,0-0.20587-0.03788-0.27948-0.11378c-0.07377-0.07575-0.1105-0.16998-0.1105-0.28269v-4.01702
				c0-0.11256,0.03673-0.20686,0.1105-0.28269c0.07361-0.07575,0.16677-0.11378,0.27948-0.11378
				c0.11263,0,0.2058,0.03803,0.27948,0.11378c0.07361,0.07583,0.1105,0.17013,0.1105,0.28269v1.43652
				c0.11699-0.15601,0.26536-0.28926,0.44527-0.39976c0.17976-0.1105,0.38021-0.1657,0.60127-0.1657
				C16.73698,16.04003,17.0338,16.17114,17.19851,16.43321z"/>
			<path style="fill:#202517;" d="M18.31645,15.61102c-0.06071-0.04765-0.09095-0.13218-0.09095-0.25352v-0.12348
				c0-0.12126,0.03245-0.2058,0.09744-0.25352c0.06506-0.04765,0.16907-0.07147,0.31202-0.07147
				c0.15166,0,0.2578,0.02382,0.3185,0.07147c0.06063,0.04773,0.09102,0.13226,0.09102,0.25352v0.12348
				c0,0.12577-0.03154,0.21122-0.09431,0.25673c-0.06285,0.04551-0.17006,0.06827-0.32171,0.06827
				C18.48109,15.6825,18.37708,15.65875,18.31645,15.61102z M18.91444,19.46868c-0.07369,0.0759-0.16685,0.11378-0.27948,0.11378
				c-0.11271,0-0.20587-0.03788-0.27949-0.11378c-0.07376-0.07575-0.11049-0.16998-0.11049-0.28269v-2.6845
				c0-0.11263,0.03673-0.20687,0.11049-0.28277c0.07361-0.07575,0.16677-0.1137,0.27949-0.1137
				c0.11263,0,0.2058,0.03795,0.27948,0.1137c0.07369,0.0759,0.1105,0.17013,0.1105,0.28277v2.6845
				C19.02494,19.29869,18.98813,19.39293,18.91444,19.46868z"/>
		</g>
		<g>
			<g>
				<path style="fill:#202517;" d="M20.68527,22.17624h-3.33259c-0.17273,0-0.31278-0.14005-0.31278-0.31278
					c0-0.17273,0.14005-0.31278,0.31278-0.31278h3.33259c0.17273,0,0.31278,0.14005,0.31278,0.31278
					C20.99805,22.03619,20.858,22.17624,20.68527,22.17624z"/>
			</g>
			<g>
				<path style="fill:#202517;" d="M16.31409,22.17624h-0.76706c-0.17273,0-0.31278-0.14005-0.31278-0.31278
					c0-0.17273,0.14005-0.31278,0.31278-0.31278h0.76706c0.17273,0,0.31278,0.14005,0.31278,0.31278
					C16.62687,22.03619,16.48682,22.17624,16.31409,22.17624z"/>
			</g>
			<g>
				<path style="fill:#202517;" d="M22.41747,22.17624h-0.76706c-0.17273,0-0.31278-0.14005-0.31278-0.31278
					c0-0.17273,0.14005-0.31278,0.31278-0.31278h0.76706c0.17273,0,0.31278,0.14005,0.31278,0.31278
					C22.73025,22.03619,22.5902,22.17624,22.41747,22.17624z"/>
			</g>
		</g>
		<g>
			<g>
				<path style="fill:#202517;" d="M11.23411,5.2872h-4.5207c-0.17273,0-0.31278-0.14005-0.31278-0.31278
					c0-0.17273,0.14005-0.31278,0.31278-0.31278h4.5207c0.17273,0,0.31278,0.14005,0.31278,0.31278
					C11.54689,5.14715,11.40684,5.2872,11.23411,5.2872z"/>
			</g>
			<g>
				<path style="fill:#202517;" d="M5.30453,5.2872H4.26402c-0.17273,0-0.31278-0.14005-0.31278-0.31278
					c0-0.17273,0.14005-0.31278,0.31278-0.31278h1.04051c0.17273,0,0.31278,0.14005,0.31278,0.31278
					C5.61731,5.14715,5.47726,5.2872,5.30453,5.2872z"/>
			</g>
			<g>
				<path style="fill:#202517;" d="M13.58392,5.2872h-1.04051c-0.17273,0-0.31278-0.14005-0.31278-0.31278
					c0-0.17273,0.14005-0.31278,0.31278-0.31278h1.04051c0.17273,0,0.31278,0.14005,0.31278,0.31278
					C13.8967,5.14715,13.75665,5.2872,13.58392,5.2872z"/>
			</g>
		</g>
	</g>
</g>
</svg>
